<?xml version="1.0" encoding="UTF-8" standalone="no"?>
<!-- Generator: Adobe Illustrator 19.0.0, SVG Export Plug-In . SVG Version: 6.00 Build 0)  -->

<svg
   xmlns:dc="http://purl.org/dc/elements/1.1/"
   xmlns:cc="http://creativecommons.org/ns#"
   xmlns:rdf="http://www.w3.org/1999/02/22-rdf-syntax-ns#"
   xmlns:svg="http://www.w3.org/2000/svg"
   xmlns="http://www.w3.org/2000/svg"
   xmlns:sodipodi="http://sodipodi.sourceforge.net/DTD/sodipodi-0.dtd"
   xmlns:inkscape="http://www.inkscape.org/namespaces/inkscape"
   version="1.1"
   id="Layer_1"
   x="0px"
   y="0px"
   viewBox="0 0 32 32"
   xml:space="preserve"
   inkscape:version="0.91 r13725"
   sodipodi:docname="Cave1.svg"
   width="32"
   height="32"><metadata
     id="metadata49"><rdf:RDF><cc:Work
         rdf:about=""><dc:format>image/svg+xml</dc:format><dc:type
           rdf:resource="http://purl.org/dc/dcmitype/StillImage" /><dc:title></dc:title></cc:Work></rdf:RDF></metadata><defs
     id="defs47" /><sodipodi:namedview
     pagecolor="#ffffff"
     bordercolor="#666666"
     borderopacity="1"
     objecttolerance="10"
     gridtolerance="10"
     guidetolerance="10"
     inkscape:pageopacity="0"
     inkscape:pageshadow="2"
     inkscape:window-width="1855"
     inkscape:window-height="1056"
     id="namedview45"
     showgrid="false"
     inkscape:zoom="3.6875"
     inkscape:cx="143.67797"
     inkscape:cy="-3.5940506"
     inkscape:window-x="65"
     inkscape:window-y="24"
     inkscape:window-maximized="1"
     inkscape:current-layer="Layer_1" /><polygon
     style="fill:#44352d"
     points="361.446,422.188 322.567,352.126 267.128,325.352 195.824,369.779 168.735,422.188 "
     id="polygon3"
     transform="matrix(0.06585425,0,0,0.06585425,-0.64408512,-0.81539158)" /><polygon
     style="fill:#2d231e"
     points="257.301,331.475 300.061,352.126 338.941,422.188 361.446,422.188 322.567,352.126 267.128,325.352 "
     id="polygon5"
     transform="matrix(0.06585425,0,0,0.06585425,-0.64408512,-0.81539158)" /><polygon
     style="fill:#b99c80"
     points="231.621,146.876 142.935,97.651 89.7,168.115 82.869,244.08 40.203,340.696 26.99,422.188 168.735,422.188 195.824,369.779 267.128,325.352 322.567,352.126 361.446,422.188 486.868,422.188 479.3,350.913 464.515,320.4 434.864,259.206 424.158,193.857 331.001,89.813 "
     id="polygon7"
     transform="matrix(0.06585425,0,0,0.06585425,-0.64408512,-0.81539158)" /><polygon
     style="fill:#a38166"
     points="464.363,422.188 486.868,422.188 479.3,350.913 434.865,259.206 424.158,193.857 331.001,89.813 316.137,98.347 401.652,193.857 412.359,259.206 456.794,350.913 "
     id="polygon9"
     transform="matrix(0.06585425,0,0,0.06585425,-0.64408512,-0.81539158)" /><path
     d="M 6.814042,18.667131 C 6.5493731,18.822546 6.4607326,19.16308 6.616084,19.427813 l 1.4525472,2.474539 c 0.103454,0.176359 0.2891011,0.274549 0.4798125,0.274549 0.095619,0 0.1924272,-0.02469 0.2808704,-0.07653 0.2646666,-0.155418 0.3533069,-0.495949 0.1979574,-0.760682 L 7.5747243,18.865213 C 7.4193087,18.60028 7.078907,18.511772 6.814042,18.667121 Z"
     id="path11"
     inkscape:connector-curvature="0" /><path
     d="m 32.517485,26.431678 -0.599341,0 -0.445569,-4.196695 c -0.03247,-0.305236 -0.305169,-0.526374 -0.611389,-0.493974 -0.305238,0.03247 -0.526375,0.306091 -0.493976,0.611392 l 0.433123,4.079277 -7.314431,0 -2.401571,-4.327812 c -0.05565,-0.100225 -0.140929,-0.1809 -0.244255,-0.230818 l -3.650961,-1.763183 c -0.171483,-0.08292 -0.373722,-0.07207 -0.535592,0.0288 l -4.695671,2.925707 c -0.08495,0.05289 -0.153903,0.127691 -0.199869,0.216528 l -1.628576,3.150732 -8.3429429,0 0.7541625,-4.651485 2.3425676,-5.304758 0.6039481,1.028842 c 0.103454,0.176357 0.2891008,0.274548 0.4798155,0.274548 0.095619,0 0.1924932,-0.02469 0.2808684,-0.07653 0.2646672,-0.155418 0.3533078,-0.495949 0.1979581,-0.760684 L 5.3827652,15.130498 5.8025183,10.463736 8.9214439,6.3353993 13.557253,8.9085214 11.317878,10.456824 c -0.101947,0.07053 -0.177475,0.17313 -0.214355,0.291535 l -1.1089854,3.551453 c -0.091485,0.292987 0.071934,0.604674 0.3648994,0.696212 0.05512,0.01717 0.110963,0.02541 0.165755,0.02541 0.236678,0 0.456107,-0.152461 0.53039,-0.390319 l 1.05189,-3.368775 2.799003,-1.9352582 6.133732,-3.5218871 5.432249,6.0672173 -1.577272,1.196704 c -0.09411,0.07138 -0.162923,0.170891 -0.196641,0.284028 l -1.157191,3.884679 c -0.08764,0.29417 0.07975,0.603621 0.37392,0.691337 0.05301,0.01575 0.106409,0.02327 0.158971,0.02327 0.239447,0 0.460586,-0.156007 0.532433,-0.397297 l 1.105363,-3.710499 1.177605,-0.893377 0.555878,3.39268 c 0.0086,0.05289 0.02496,0.104244 0.04834,0.152521 l 1.952444,4.030083 c 0.133752,0.276128 0.466054,0.391569 0.742509,0.25782 0.276259,-0.133819 0.391633,-0.466249 0.257819,-0.742508 l -1.917347,-3.957179 -0.690876,-4.217043 c -1.32e-4,-0.001 -3.3e-4,-0.0017 -4.61e-4,-0.0029 l -5.95e-4,-0.0038 c -1.95e-4,-0.0014 -7.23e-4,-0.0029 -0.001,-0.0042 -0.0037,-0.02187 -0.0091,-0.04354 -0.01541,-0.06494 -0.0014,-0.0047 -0.0029,-0.0093 -0.0042,-0.01395 -0.01457,-0.04431 -0.03478,-0.08718 -0.06099,-0.127894 -0.0035,-0.0058 -0.0075,-0.01123 -0.01136,-0.01667 -0.0042,-0.0061 -0.008,-0.01245 -0.01259,-0.01844 -0.0068,-0.0089 -0.01426,-0.01713 -0.02147,-0.02554 -0.0024,-0.0029 -0.0045,-0.0063 -0.0073,-0.0093 L 21.567947,4.7282716 C 21.392839,4.5326187 21.104663,4.4863237 20.877137,4.6170436 L 14.604627,8.2185343 9.0387558,5.1291156 C 8.7966771,4.9947807 8.4926282,5.0591184 8.3255562,5.2800564 l -3.5058175,4.64042 C 4.757118,10.003387 4.7189839,10.102233 4.7096919,10.205691 L 4.267941,15.117232 1.4952133,21.396174 c -0.019167,0.04333 -0.03266,0.08884 -0.040235,0.135593 l -0.79446474,4.899756 -0.74876234,0 c -0.30696114,4.6e-5 -0.55582436,0.248908 -0.55582436,0.555856 0,0.306945 0.24886322,0.555809 0.55581056,0.555809 l 1.22153058,0 9.3345103,0 12.690907,0 8.259572,0 1.099239,0 c 0.307013,0 0.55581,-0.248864 0.55581,-0.555809 0,-0.306948 -0.248797,-0.55581 -0.55581,-0.55581 z m -19.84222,-2.504569 4.306146,-2.683035 3.21652,1.553303 2.016719,3.634301 -10.833946,0 1.294561,-2.504569 z"
     id="path13"
     inkscape:connector-curvature="0" /><g
     id="g15"
     transform="translate(0,-480)" /><g
     id="g17"
     transform="translate(0,-480)" /><g
     id="g19"
     transform="translate(0,-480)" /><g
     id="g21"
     transform="translate(0,-480)" /><g
     id="g23"
     transform="translate(0,-480)" /><g
     id="g25"
     transform="translate(0,-480)" /><g
     id="g27"
     transform="translate(0,-480)" /><g
     id="g29"
     transform="translate(0,-480)" /><g
     id="g31"
     transform="translate(0,-480)" /><g
     id="g33"
     transform="translate(0,-480)" /><g
     id="g35"
     transform="translate(0,-480)" /><g
     id="g37"
     transform="translate(0,-480)" /><g
     id="g39"
     transform="translate(0,-480)" /><g
     id="g41"
     transform="translate(0,-480)" /><g
     id="g43"
     transform="translate(0,-480)" /></svg>