<?xml version="1.0" encoding="UTF-8" standalone="no"?>
<!-- Created with Inkscape (http://www.inkscape.org/) -->

<svg
   xmlns:dc="http://purl.org/dc/elements/1.1/"
   xmlns:cc="http://creativecommons.org/ns#"
   xmlns:rdf="http://www.w3.org/1999/02/22-rdf-syntax-ns#"
   xmlns:svg="http://www.w3.org/2000/svg"
   xmlns="http://www.w3.org/2000/svg"
   xmlns:sodipodi="http://sodipodi.sourceforge.net/DTD/sodipodi-0.dtd"
   xmlns:inkscape="http://www.inkscape.org/namespaces/inkscape"
   id="svg2"
   version="1.1"
   inkscape:version="0.91 r13725"
   width="32"
   height="32"
   viewBox="0 0 32 32"
   sodipodi:docname="Dolmen.svg">
  <metadata
     id="metadata8">
    <rdf:RDF>
      <cc:Work
         rdf:about="">
        <dc:format>image/svg+xml</dc:format>
        <dc:type
           rdf:resource="http://purl.org/dc/dcmitype/StillImage" />
        <dc:title></dc:title>
      </cc:Work>
    </rdf:RDF>
  </metadata>
  <defs
     id="defs6" />
  <sodipodi:namedview
     pagecolor="#ffffff"
     bordercolor="#666666"
     borderopacity="1"
     objecttolerance="10"
     gridtolerance="10"
     guidetolerance="10"
     inkscape:pageopacity="0"
     inkscape:pageshadow="2"
     inkscape:window-width="1920"
     inkscape:window-height="1017"
     id="namedview4"
     showgrid="false"
     inkscape:zoom="41.7193"
     inkscape:cx="20.566678"
     inkscape:cy="17.27349"
     inkscape:window-x="-8"
     inkscape:window-y="-8"
     inkscape:window-maximized="1"
     inkscape:current-layer="svg2" />
  <path
     style="fill:#808985;fill-opacity:1;fill-rule:evenodd;stroke:#000000;stroke-width:1px;stroke-linecap:butt;stroke-linejoin:miter;stroke-opacity:1"
     d="M 27.087604,9.6537436 C 23.706032,9.6947646 6.5182224,9.6477434 3.6519937,9.3544804 0.78576524,9.0612169 2.9142616,1.1724249 6.1199129,0.96099387 9.3255654,0.74956288 21.460775,-0.89056166 25.526825,1.4274444 c 4.06605,2.3180059 4.942351,8.1852752 1.560779,8.2262992 z"
     id="path4138-6-4"
     inkscape:connector-curvature="0"
     sodipodi:nodetypes="zzzzz" />
  <path
     sodipodi:nodetypes="zzzzz"
     inkscape:connector-curvature="0"
     id="path4190"
     d="M 27.087604,9.6537436 C 23.706032,9.6947646 6.5182224,9.6477434 3.6519937,9.3544804 0.78576524,9.0612169 2.9142616,1.1724249 6.1199129,0.96099387 9.3255654,0.74956288 21.460775,-0.89056166 25.526825,1.4274444 c 4.06605,2.3180059 4.942351,8.1852752 1.560779,8.2262992 z"
     style="fill:#808985;fill-opacity:1;fill-rule:evenodd;stroke:none;stroke-width:1px;stroke-linecap:butt;stroke-linejoin:miter;stroke-opacity:1" />
  <path
     style="fill:#6a726e;fill-opacity:1;fill-rule:evenodd;stroke:none;stroke-width:1px;stroke-linecap:butt;stroke-linejoin:miter;stroke-opacity:1"
     d="M 27.087604,9.6537436 C 24.454189,9.4561262 6.4167645,10.117313 3.6519937,9.3544804 0.8872229,8.5916478 3.1316339,5.7553441 6.1199129,5.7069987 9.1081919,5.6586533 21.536234,2.3764206 25.574764,4.6393871 c 4.038531,2.2629665 4.146255,5.2119739 1.51284,5.0143565 z"
     id="path4192"
     inkscape:connector-curvature="0"
     sodipodi:nodetypes="zzzzz" />
  <path
     style="fill:#808985;fill-rule:evenodd;stroke:#000000;stroke-width:1px;stroke-linecap:butt;stroke-linejoin:miter;stroke-opacity:1;fill-opacity:1"
     d="M 1.7627119,28.610169 C 0.56417006,25.450229 1.9530464,13.328492 3.1186441,10.305085 4.2842418,7.2816778 12.876519,7.6392724 12.949153,10.779661 c 0.07263,3.140389 1.50757,12.105011 0.406779,16.881356 -1.100791,4.776345 -10.3946783,4.109092 -11.5932201,0.949152 z"
     id="path4138"
     inkscape:connector-curvature="0"
     sodipodi:nodetypes="zzzzz" />
  <path
     sodipodi:nodetypes="zzzzz"
     inkscape:connector-curvature="0"
     id="path4142"
     d="M 1.7627119,28.610169 C 0.56417006,25.450229 1.9530464,13.328492 3.1186441,10.305085 4.2842418,7.2816778 12.876519,7.6392724 12.949153,10.779661 c 0.07263,3.140389 1.50757,12.105011 0.406779,16.881356 -1.100791,4.776345 -10.3946783,4.109092 -11.5932201,0.949152 z"
     style="fill:#808985;fill-rule:evenodd;stroke:none;stroke-width:1px;stroke-linecap:butt;stroke-linejoin:miter;stroke-opacity:1;fill-opacity:1" />
  <path
     sodipodi:nodetypes="zzzzz"
     inkscape:connector-curvature="0"
     id="path4140"
     d="M 7.7137746,29.054668 C 8.5702954,26.364864 9.5032177,15.925343 9.0348106,12.676555 8.5664035,9.4277675 12.85957,8.1832738 12.932204,10.830508 c 0.07263,2.647235 1.4746,13.252217 0.423728,16.830509 -1.050872,3.578292 -6.4986782,4.083454 -5.6421574,1.393651 z"
     style="fill:#6a726e;fill-opacity:1;fill-rule:evenodd;stroke:none;stroke-width:1px;stroke-linecap:butt;stroke-linejoin:miter;stroke-opacity:1" />
  <path
     style="fill:#808985;fill-opacity:1;fill-rule:evenodd;stroke:#000000;stroke-width:1px;stroke-linecap:butt;stroke-linejoin:miter;stroke-opacity:1"
     d="m 18.434481,29.486195 c -0.01536,-3.381786 -0.109619,-16.352012 0.205385,-19.215933 0.315004,-2.8639205 8.780499,-3.0202238 8.967599,0.186939 0.1871,3.207164 4.289635,13.552103 1.940841,17.600447 -2.348793,4.048344 -11.098462,4.810333 -11.113825,1.428547 z"
     id="path4138-6"
     inkscape:connector-curvature="0"
     sodipodi:nodetypes="zzzzz" />
  <path
     sodipodi:nodetypes="zzzzz"
     inkscape:connector-curvature="0"
     id="path4165"
     d="m 18.434481,29.486195 c -0.01536,-3.381786 -0.109619,-16.352012 0.205385,-19.215933 0.315004,-2.8639205 8.780499,-3.0202238 8.967599,0.186939 0.1871,3.207164 4.289635,13.552103 1.940841,17.600447 -2.348793,4.048344 -11.098462,4.810333 -11.113825,1.428547 z"
     style="fill:#808985;fill-opacity:1;fill-rule:evenodd;stroke:none;stroke-width:1px;stroke-linecap:butt;stroke-linejoin:miter;stroke-opacity:1" />
  <path
     style="fill:#6a726e;fill-opacity:1;fill-rule:evenodd;stroke:none;stroke-width:1px;stroke-linecap:butt;stroke-linejoin:miter;stroke-opacity:1"
     d="m 23.276365,28.815043 c 3.559023,-3.193661 2.616386,-11.987344 1.979144,-14.901383 -0.637242,-2.914039 2.164856,-6.6636218 2.351956,-3.456459 0.1871,3.207164 4.289635,13.552103 1.940841,17.600447 -2.348793,4.048344 -9.830964,3.951055 -6.271941,0.757395 z"
     id="path4167"
     inkscape:connector-curvature="0"
     sodipodi:nodetypes="zzzzz" />
</svg>
