<?xml version="1.0" encoding="UTF-8" standalone="no"?>
<!-- Created with Inkscape (http://www.inkscape.org/) -->

<svg
   xmlns:dc="http://purl.org/dc/elements/1.1/"
   xmlns:cc="http://creativecommons.org/ns#"
   xmlns:rdf="http://www.w3.org/1999/02/22-rdf-syntax-ns#"
   xmlns:svg="http://www.w3.org/2000/svg"
   xmlns="http://www.w3.org/2000/svg"
   xmlns:sodipodi="http://sodipodi.sourceforge.net/DTD/sodipodi-0.dtd"
   xmlns:inkscape="http://www.inkscape.org/namespaces/inkscape"
   id="svg2"
   version="1.1"
   inkscape:version="0.91 r13725"
   width="32"
   height="32"
   viewBox="0 0 32 32"
   sodipodi:docname="Menhir.svg">
  <metadata
     id="metadata8">
    <rdf:RDF>
      <cc:Work
         rdf:about="">
        <dc:format>image/svg+xml</dc:format>
        <dc:type
           rdf:resource="http://purl.org/dc/dcmitype/StillImage" />
        <dc:title></dc:title>
      </cc:Work>
    </rdf:RDF>
  </metadata>
  <defs
     id="defs6" />
  <sodipodi:namedview
     pagecolor="#ffffff"
     bordercolor="#666666"
     borderopacity="1"
     objecttolerance="10"
     gridtolerance="10"
     guidetolerance="10"
     inkscape:pageopacity="0"
     inkscape:pageshadow="2"
     inkscape:window-width="1920"
     inkscape:window-height="1017"
     id="namedview4"
     showgrid="false"
     inkscape:zoom="7.375"
     inkscape:cx="-5.3656474"
     inkscape:cy="17.275065"
     inkscape:window-x="-8"
     inkscape:window-y="-8"
     inkscape:window-maximized="1"
     inkscape:current-layer="svg2" />
  <path
     style="fill:#959595;fill-rule:evenodd;stroke:#000000;stroke-width:1px;stroke-linecap:butt;stroke-linejoin:miter;stroke-opacity:1;fill-opacity:1"
     d="m 10.644068,29.830508 c 1.673497,0.356959 4.724589,0.09704 6.847457,-0.542372 2.122868,-0.639411 4.083631,-1.054652 5.627119,-3.118644 1.543488,-2.063992 1.853633,-6.411381 1.966102,-8.81356 C 25.197215,14.953753 24.940912,14.307385 24.40678,12 23.872648,9.692615 22.98705,5.2831278 21.559322,3.6610169 20.131594,2.038906 20.927841,1.2124869 17.830508,1.8305085 14.733175,2.4485301 9.8960903,8.2853629 8.0677966,12.949153 6.2395029,17.612943 6.1094593,25.508525 7.661017,28.20339 c 1.5515577,2.694865 1.3095542,1.270159 2.983051,1.627118 z"
     id="path4138"
     inkscape:connector-curvature="0"
     sodipodi:nodetypes="zzzzzzzzzz" />
  <path
     sodipodi:nodetypes="zzzzzzzzzz"
     inkscape:connector-curvature="0"
     id="path4140"
     d="m 10.644068,29.830508 c 1.673497,0.356959 4.724589,0.09704 6.847457,-0.542372 2.122868,-0.639411 4.083631,-1.054652 5.627119,-3.118644 1.543488,-2.063992 1.853633,-6.411381 1.966102,-8.81356 C 25.197215,14.953753 24.940912,14.307385 24.40678,12 23.872648,9.692615 22.98705,5.2831278 21.559322,3.6610169 20.131594,2.038906 20.927841,1.2124869 17.830508,1.8305085 14.733175,2.4485301 9.8960903,8.2853629 8.0677966,12.949153 6.2395029,17.612943 6.1094593,25.508525 7.661017,28.20339 c 1.5515577,2.694865 1.3095542,1.270159 2.983051,1.627118 z"
     style="fill:#959595;fill-rule:evenodd;stroke:none;stroke-width:1px;stroke-linecap:butt;stroke-linejoin:miter;stroke-opacity:1;fill-opacity:1" />
  <path
     style="fill:#858585;fill-opacity:1;fill-rule:evenodd;stroke:none;stroke-width:1px;stroke-linecap:butt;stroke-linejoin:miter;stroke-opacity:1"
     d="m 10.644068,29.830508 c 1.673497,0.356959 4.724589,0.09704 6.847457,-0.542372 2.122868,-0.639411 4.083631,-1.054652 5.627119,-3.118644 1.543488,-2.063992 1.853633,-6.411381 1.966102,-8.81356 C 25.197215,14.953753 24.940912,14.307385 24.40678,12 23.872648,9.692615 22.98705,5.2831278 21.559322,3.6610169 27.944254,26.895121 8.4478795,29.221143 7.661017,28.20339 c 1.5515577,2.694865 1.3095542,1.270159 2.983051,1.627118 z"
     id="path4142"
     inkscape:connector-curvature="0"
     sodipodi:nodetypes="zzzzzccz" />
  <path
     style="fill:#747474;fill-opacity:1;fill-rule:evenodd;stroke:none;stroke-width:1px;stroke-linecap:butt;stroke-linejoin:miter;stroke-opacity:1"
     d="m 12.169492,12.20339 c -0.363722,-0.482519 -1.722235,0.393124 -1.152542,-0.169492 0.569692,-0.562616 2.236903,-0.391499 3.525423,-0.542373 1.28852,-0.150874 3.289658,-0.230162 4.20339,-0.338983 0.913731,-0.10882 0.918477,-0.505617 1.288136,-0.20339 0.369659,0.302227 1.021411,-0.08918 0.779664,0.40678 -0.241747,0.495955 -0.816815,0.377456 -1.966101,0.745762 -1.149286,0.368306 -3.332884,0.379767 -4.644068,0.305085 -1.311185,-0.07468 -1.67018,0.27913 -2.033902,-0.203389 z"
     id="path4144"
     inkscape:connector-curvature="0"
     sodipodi:nodetypes="zzzzzzzzz" />
  <path
     style="fill:#747474;fill-opacity:1;fill-rule:evenodd;stroke:none;stroke-width:1px;stroke-linecap:butt;stroke-linejoin:miter;stroke-opacity:1"
     d="m 11.569893,17.592842 c -0.223992,0.5612 -1.7649931,0.07373 -1.067372,0.466686 0.69762,0.392953 2.26111,-0.210679 3.543941,-0.404048 1.282831,-0.193369 3.234355,-0.643249 4.144535,-0.778606 0.910178,-0.135359 1.01913,0.246217 1.296274,-0.142602 0.277144,-0.388818 1.0089,-0.18263 0.64521,-0.597536 -0.36369,-0.414902 -0.887337,-0.149311 -2.09303,-0.202341 -1.205693,-0.05303 -3.315411,0.510282 -4.560778,0.927226 -1.245368,0.416942 -1.684787,0.170021 -1.90878,0.731221 z"
     id="path4144-7"
     inkscape:connector-curvature="0"
     sodipodi:nodetypes="zzzzzzzzz" />
</svg>
