<?xml version="1.0" encoding="UTF-8" standalone="no"?>
<!-- Created with Inkscape (http://www.inkscape.org/) -->

<svg
   xmlns:dc="http://purl.org/dc/elements/1.1/"
   xmlns:cc="http://creativecommons.org/ns#"
   xmlns:rdf="http://www.w3.org/1999/02/22-rdf-syntax-ns#"
   xmlns:svg="http://www.w3.org/2000/svg"
   xmlns="http://www.w3.org/2000/svg"
   xmlns:sodipodi="http://sodipodi.sourceforge.net/DTD/sodipodi-0.dtd"
   xmlns:inkscape="http://www.inkscape.org/namespaces/inkscape"
   width="210mm"
   height="297mm"
   viewBox="0 0 744.09448819 1052.3622047"
   id="svg4177"
   version="1.1"
   inkscape:version="0.91 r13725"
   sodipodi:docname="wrong.svg">
  <defs
     id="defs4179" />
  <sodipodi:namedview
     id="base"
     pagecolor="#ffffff"
     bordercolor="#666666"
     borderopacity="1.0"
     inkscape:pageopacity="0.0"
     inkscape:pageshadow="2"
     inkscape:zoom="0.35"
     inkscape:cx="-152.14286"
     inkscape:cy="520"
     inkscape:document-units="px"
     inkscape:current-layer="layer1"
     showgrid="false"
     inkscape:window-width="1920"
     inkscape:window-height="1017"
     inkscape:window-x="1912"
     inkscape:window-y="-8"
     inkscape:window-maximized="1" />
  <metadata
     id="metadata4182">
    <rdf:RDF>
      <cc:Work
         rdf:about="">
        <dc:format>image/svg+xml</dc:format>
        <dc:type
           rdf:resource="http://purl.org/dc/dcmitype/StillImage" />
        <dc:title></dc:title>
      </cc:Work>
    </rdf:RDF>
  </metadata>
  <g
     inkscape:label="Capa 1"
     inkscape:groupmode="layer"
     id="layer1">
    <path
       style="color:#000000;font-style:normal;font-variant:normal;font-weight:normal;font-stretch:normal;font-size:medium;line-height:normal;font-family:sans-serif;text-indent:0;text-align:start;text-decoration:none;text-decoration-line:none;text-decoration-style:solid;text-decoration-color:#000000;letter-spacing:normal;word-spacing:normal;text-transform:none;direction:ltr;block-progression:tb;writing-mode:lr-tb;baseline-shift:baseline;text-anchor:start;white-space:normal;clip-rule:nonzero;display:inline;overflow:visible;visibility:visible;opacity:1;isolation:auto;mix-blend-mode:normal;color-interpolation:sRGB;color-interpolation-filters:linearRGB;solid-color:#000000;solid-opacity:1;fill:#d33f3f;fill-opacity:1;fill-rule:nonzero;stroke:none;stroke-width:6.30000019;stroke-linecap:round;stroke-linejoin:round;stroke-miterlimit:4;stroke-dasharray:none;stroke-dashoffset:0;stroke-opacity:1;color-rendering:auto;image-rendering:auto;shape-rendering:auto;text-rendering:auto;enable-background:accumulate"
       d="m 519.9069,217.06401 c -4.00637,0.18141 -7.65068,1.87922 -10.11361,4.69704 -8.73489,11.22611 -82.78653,93.8728 -168.87666,177.70059 -69.62018,-81.71281 -124.08656,-153.04748 -126.25019,-157.86706 -3.26919,-7.28229 -13.65929,-6.3708 -18.93754,-0.97745 -5.27825,5.39342 -50.845,47.16636 -58.12939,53.12013 -6.74273,7.54461 -5.92472,17.25578 -0.46151,22.37208 9.54018,7.96359 71.93415,67.76681 141.42741,141.99756 -74.56473,67.27326 -148.4114,124.3454 -178.895181,147.80774 -12.23387,10.10485 -9.40292,14.85131 0.475411,25.8338 l 55.48221,60.76303 c 13.48121,14.76595 14.99761,11.43344 23.34946,1.45252 23.44636,-28.01954 85.31786,-100.2281 157.07971,-172.70488 0.92421,1.04884 1.86066,2.05847 2.78293,3.10877 76.03122,86.59119 142.73001,179.32702 168.14358,214.80186 9.67899,12.57347 14.51887,9.91551 25.8338,0.42051 l 62.63641,-53.36444 c 15.22019,-12.96646 11.95508,-14.57864 2.26706,-23.26808 -31.06354,-27.86065 -118.02429,-107.80872 -196.92317,-195.07689 -1.52613,-1.68808 -2.98554,-3.39924 -4.50702,-5.09079 93.60569,-88.13783 185.16118,-163.40561 190.63779,-166.09367 7.16595,-3.51725 5.88496,-13.87468 0.31208,-18.96471 -5.57184,-5.09002 -48.87459,-49.19383 -55.07497,-56.26956 -3.88584,-3.23993 -8.25211,-4.57972 -12.25847,-4.39838 z m -168.51016,29.66203 c -33.5421,0.42537 -67.0931,7.87545 -98.32581,22.42636 3.75518,4.83786 6.16055,8.07431 10.61585,13.72462 4.93788,6.26224 11.63105,14.4201 17.48501,21.67974 28.762,-11.64266 59.50915,-16.16302 89.69198,-13.67034 16.07947,1.32804 31.98559,4.66264 47.35061,9.90995 9.16687,-9.55109 17.91463,-18.73756 25.73872,-27.1234 2.60924,-2.79656 4.01533,-4.42708 6.48897,-7.09985 -24.24137,-10.484 -49.93254,-16.89373 -75.99446,-19.04617 -7.66055,-0.6325 -15.35849,-0.8985 -23.05087,-0.80091 z m 197.66987,98.97742 c -4.93281,4.16344 -9.63235,8.10885 -15.15005,12.82862 -5.64885,4.83203 -11.95369,10.34103 -18.17728,15.76093 43.18376,61.53294 46.56159,140.60655 12.82863,204.37604 11.74427,11.39563 22.48662,21.61009 32.5807,31.1281 47.99272,-80.84253 45.2911,-185.2092 -12.082,-264.09369 z m -393.81924,7.1542 c -42.16523,62.80585 -52.05433,142.1577 -27.53071,212.98276 11.08912,-8.78216 23.10877,-18.41013 36.61258,-29.41772 -13.3821,-51.32278 -5.41476,-106.48491 22.69792,-152.21973 -3.7453,-3.75907 -8.25016,-8.42039 -11.68832,-11.82407 -7.95331,-7.87344 -13.6939,-13.34596 -20.09147,-19.52124 z m 84.12612,293.28058 c -10.82993,12.18063 -20.7271,23.42793 -28.9154,32.90654 72.61204,54.50711 170.63522,63.27168 251.61801,22.84715 -8.22521,-11.10114 -16.77709,-22.58755 -26.77045,-35.6894 -63.86867,28.85506 -138.89895,21.40685 -195.93216,-20.06429 z"
       id="path4162"
       inkscape:connector-curvature="0"
       inkscape:transform-center-x="104.25823"
       inkscape:transform-center-y="-352.49215" />
  </g>
</svg>
