<?xml version="1.0" encoding="UTF-8" standalone="no"?>
<!-- Created with Inkscape (http://www.inkscape.org/) -->

<svg
   xmlns:dc="http://purl.org/dc/elements/1.1/"
   xmlns:cc="http://creativecommons.org/ns#"
   xmlns:rdf="http://www.w3.org/1999/02/22-rdf-syntax-ns#"
   xmlns:svg="http://www.w3.org/2000/svg"
   xmlns="http://www.w3.org/2000/svg"
   xmlns:sodipodi="http://sodipodi.sourceforge.net/DTD/sodipodi-0.dtd"
   xmlns:inkscape="http://www.inkscape.org/namespaces/inkscape"
   width="210mm"
   height="297mm"
   viewBox="0 0 744.09448819 1052.3622047"
   id="svg4177"
   version="1.1"
   inkscape:version="0.91 r13725"
   sodipodi:docname="correct.svg">
  <defs
     id="defs4179" />
  <sodipodi:namedview
     id="base"
     pagecolor="#ffffff"
     bordercolor="#666666"
     borderopacity="1.0"
     inkscape:pageopacity="0.0"
     inkscape:pageshadow="2"
     inkscape:zoom="0.35"
     inkscape:cx="-152.14286"
     inkscape:cy="520"
     inkscape:document-units="px"
     inkscape:current-layer="layer1"
     showgrid="false"
     inkscape:window-width="1920"
     inkscape:window-height="1017"
     inkscape:window-x="1912"
     inkscape:window-y="-8"
     inkscape:window-maximized="1" />
  <metadata
     id="metadata4182">
    <rdf:RDF>
      <cc:Work
         rdf:about="">
        <dc:format>image/svg+xml</dc:format>
        <dc:type
           rdf:resource="http://purl.org/dc/dcmitype/StillImage" />
        <dc:title></dc:title>
      </cc:Work>
    </rdf:RDF>
  </metadata>
  <g
     inkscape:label="Capa 1"
     inkscape:groupmode="layer"
     id="layer1">
    <path
       inkscape:connector-curvature="0"
       style="color:#000000;font-style:normal;font-variant:normal;font-weight:normal;font-stretch:normal;font-size:medium;line-height:normal;font-family:sans-serif;text-indent:0;text-align:start;text-decoration:none;text-decoration-line:none;text-decoration-style:solid;text-decoration-color:#000000;letter-spacing:normal;word-spacing:normal;text-transform:none;direction:ltr;block-progression:tb;writing-mode:lr-tb;baseline-shift:baseline;text-anchor:start;white-space:normal;clip-rule:nonzero;display:inline;overflow:visible;visibility:visible;opacity:1;isolation:auto;mix-blend-mode:normal;color-interpolation:sRGB;color-interpolation-filters:linearRGB;solid-color:#000000;solid-opacity:1;fill:#5fb051;fill-opacity:1;fill-rule:nonzero;stroke:none;stroke-width:6.30000019;stroke-linecap:round;stroke-linejoin:round;stroke-miterlimit:4;stroke-dasharray:none;stroke-dashoffset:0;stroke-opacity:1;color-rendering:auto;image-rendering:auto;shape-rendering:auto;text-rendering:auto;enable-background:accumulate"
       d="m 702.06573,133.12541 c -4.07064,0.0548 -8.85566,1.80257 -13.93105,6.02204 -158.55214,123.44577 -288.29642,261.40301 -395.23569,404.3224 0,0 -168.13498,-171.43672 -183.9143,-165.35289 -15.779247,6.08397 -45.412337,31.653 -50.759417,46.65102 -5.34706,14.99801 198.640177,218.45443 254.292307,233.97784 7.00595,3.40691 14.76786,0.2172 17.27664,-5.1522 73.09179,-155.50022 234.33832,-374.07901 377.69141,-496.20596 12.52528,-9.33973 6.79204,-24.42203 -5.4199,-24.26225 z M 290.44996,265.91894 c -53.08148,0.67353 -106.24676,19.03708 -149.81591,55.89826 -11.76287,9.95181 -22.26289,20.83943 -31.58242,32.42553 7.00246,-0.72054 10.79677,2.00504 13.9712,3.39917 4.26429,1.87267 7.67134,4.00515 11.38843,6.50379 4.31519,2.90084 9.00263,6.47474 13.9177,10.38478 6.16297,-6.95964 12.88197,-13.57957 20.19399,-19.76584 40.89784,-34.60105 91.77874,-49.38645 141.10399,-45.31278 39.65075,3.27474 78.28065,18.76046 109.92302,45.91499 9.702,-10.54998 19.58961,-21.03204 29.58849,-31.4754 -38.88917,-33.84811 -86.80228,-53.12156 -135.97852,-57.18296 -7.55176,-0.62352 -15.12683,-0.88574 -22.70997,-0.78954 z m 220.23412,141.7865 c -10.46275,13.88597 -20.60736,27.87075 -30.59213,41.87347 20.20037,70.72545 -1.01297,149.71792 -60.79625,200.62889 -81.5717,69.46597 -203.34995,59.80679 -272.94733,-21.65267 a 21.585289,21.585289 0 0 0 -0.21446,-0.22748 21.585289,21.585289 0 0 0 -0.58856,-0.73609 C 117.06884,593.82253 102.1007,553.28215 100.04516,512.44948 89.212143,501.28599 79.118093,490.58138 70.550413,481.04095 c -4.09051,-4.55486 -7.66147,-8.69759 -11.10743,-12.75344 -9.4813,64.8312 7.66961,133.26397 53.101347,187.13944 a 21.585289,21.585289 0 0 0 0.40152,0.44195 21.585289,21.585289 0 0 0 0.58856,0.72265 c 0.13841,0.1617 0.31656,0.26653 0.45496,0.42824 84.80848,98.73103 234.13653,110.49274 333.28861,26.0555 81.31907,-69.25089 104.13223,-182.13546 63.40576,-275.36957 z"
       id="path4146" />
  </g>
</svg>
